<?xml version="1.0" encoding="UTF-8"?>
<svg version="1.1" xmlns="http://www.w3.org/2000/svg" width="755" height="330">
<path d="M0 0 C4.29 0 8.58 0 13 0 C13.020625 2.02125 13.04125 4.0425 13.0625 6.125 C14.01135455 18.6625315 19.92450792 28.00902092 29.0625 36.4765625 C56.32737147 59.8982473 88.11165533 66.39902984 123.3984375 63.7265625 C150.57040651 60.60267018 175.97501195 48.82149157 194 28 C198.73647733 21.18434098 200.08894241 15.46350701 200.5625 7.25 C200.60568359 6.55261719 200.64886719 5.85523438 200.69335938 5.13671875 C200.79889596 3.42468078 200.8998991 1.71236439 201 0 C205.29 0 209.58 0 214 0 C215 6 215 6 214.5625 9.6875 C214.4532689 19.2452212 225.89243765 28.51141541 232 35 C232.52722656 35.59167969 233.05445313 36.18335938 233.59765625 36.79296875 C246.8741083 51.08807441 266.96098885 62.44781236 285.375 68.4375 C289.84238087 70.3630952 291.2763062 72.03826357 294 76 C296.05550007 82.16650021 296.08538284 89.52816064 293.375 95.5 C290.70273237 100.07423748 286.96833941 102.34388686 282 104 C280.49343898 104.11244811 278.98304099 104.17764153 277.47265625 104.2109375 C276.59802734 104.23929687 275.72339844 104.26765625 274.82226562 104.296875 C272.98652985 104.34884204 271.15056077 104.39314804 269.31445312 104.4296875 C268.43853516 104.460625 267.56261719 104.4915625 266.66015625 104.5234375 C265.46338257 104.5531665 265.46338257 104.5531665 264.24243164 104.58349609 C261.50807553 105.09136888 260.16445771 106.30302956 258 108 C253.89718519 108.41865457 252.48868651 108.32579101 249 106 C249 105.34 249 104.68 249 104 C243.06 104.495 243.06 104.495 237 105 C236.690625 106.464375 236.38125 107.92875 236.0625 109.4375 C235.125 113.875 235.125 113.875 234 115 C233.84576751 117.43212772 233.76833254 119.81635567 233.75 122.25 C233.729375 122.91902344 233.70875 123.58804688 233.6875 124.27734375 C233.65188932 128.80880314 234.55107147 131.26389879 237 135 C236.39098554 138.38341369 235.56828287 140.34752708 233.3125 142.9375 C229.90182673 144.5045661 227.56843345 143.92514941 224 143 C221.82717922 139.74076883 221.23738353 137.87726431 221 134 C221.4846875 133.4328125 221.969375 132.865625 222.46875 132.28125 C224.67572256 128.99331129 224.36226346 126.3535016 224.3125 122.4375 C224.31572266 121.76525391 224.31894531 121.09300781 224.32226562 120.40039062 C224.28217649 116.73041222 224.08504922 115.12757383 222 112 C221.45512821 105.8974359 221.45512821 105.8974359 223.0625 103.25 C225.87850303 101.43322385 228.90784225 100.27951355 232 99 C232.77085937 98.47664063 233.54171875 97.95328125 234.3359375 97.4140625 C237.56199006 95.70170029 239.62741338 95.72331534 243.25 95.875 C245.16583778 95.94509163 247.08288951 95.99411929 249 96 C249.33 95.67 249.66 95.34 250 95 C238.78 95 227.56 95 216 95 C215.13466535 103.40385102 215.13466535 103.40385102 215.11328125 111.60546875 C215.14357422 112.52650391 215.17386719 113.44753906 215.20507812 114.39648438 C215.2771757 116.26971038 215.36858619 118.14228489 215.47851562 120.01367188 C215.6399988 126.22422739 214.614351 129.61436814 210.57006836 134.3737793 C209.16678815 135.8272468 207.71142224 137.23000604 206.25 138.625 C203.69187728 141.32524065 203.06957873 143.48566988 202 147 C200.17148451 149.79089206 198.9021669 150.02898759 195.625 151 C192 151 192 151 189 149 C187 146 187 146 187 142.375 C188.00017425 138.99941192 188.37672416 138.11286471 191 136 C193.2265625 135.0859375 193.2265625 135.0859375 195.625 134.375 C198.57439631 133.63985856 198.57439631 133.63985856 201 132 C196.94540165 131.42977418 196.94540165 131.42977418 193 132 C190.82650426 133.91704846 189.17712862 135.9301719 187.4453125 138.25 C186.96835937 138.8275 186.49140625 139.405 186 140 C185.34 140 184.68 140 184 140 C183.6596875 140.8971875 183.6596875 140.8971875 183.3125 141.8125 C181.57570471 144.70715882 180.0816964 145.63035715 177 147 C172.70832116 147.53645986 170.73608096 147.46983891 167.0625 145.125 C165 143 165 143 165 141 C161.91698584 140.88355844 158.83453877 140.81267568 155.75 140.75 C154.44095703 140.69972656 154.44095703 140.69972656 153.10546875 140.6484375 C147.93963983 140.4450222 147.93963983 140.4450222 143.64453125 142.984375 C142.83048828 143.98210937 142.83048828 143.98210937 142 145 C139.04083618 145.77244967 137.13268622 145.39780142 134 145 C131.08218363 142.72045596 131.02179613 141.17436907 130.5625 137.5 C131 134 131 134 132.625 131.5625 C135.68110493 129.55190465 137.40025513 129.55003189 141 130 C141.55171875 130.32484375 142.1034375 130.6496875 142.671875 130.984375 C146.09407621 132.47728157 149.57158456 132.46902479 153.25 132.625 C154.36761719 132.68300781 154.36761719 132.68300781 155.5078125 132.7421875 C157.3381524 132.83605108 159.16904143 132.91909718 161 133 C161.28875 132.21625 161.5775 131.4325 161.875 130.625 C163 128 163 128 165 126 C166.485 125.814375 166.485 125.814375 168 125.625 C168.99 125.41875 169.98 125.2125 171 125 C172.08431094 123.25132517 172.08431094 123.25132517 173 121 C175.36540348 117.62085217 177.51671363 115.34314834 181.6171875 114.39453125 C184.06994999 114.15481367 186.5364507 114.06658241 189 114 C182.565 113.505 182.565 113.505 176 113 C175.67 114.32 175.34 115.64 175 117 C168.79581994 118.45980707 168.79581994 118.45980707 165.1875 116.375 C162.82983505 113.81524948 161.63750587 112.42659407 161 109 C161.9375 105.3125 161.9375 105.3125 164 102 C167.3125 100.3125 167.3125 100.3125 171 100 C173.00698975 101.3227887 175.00591923 102.65783025 177 104 C180.69183969 104.64939562 184.24298898 104.81673117 188 105 C188 101.37 188 97.74 188 94 C130.58 94 73.16 94 14 94 C13.67 99.94 13.34 105.88 13 112 C16.95120235 111.88018935 20.9021587 111.75757844 24.85302734 111.62768555 C26.85894807 111.56301749 28.86502228 111.50316894 30.87109375 111.44335938 C32.12792969 111.40146484 33.38476562 111.35957031 34.6796875 111.31640625 C35.84226074 111.27974854 37.00483398 111.24309082 38.20263672 111.20532227 C40.9535501 111.18178341 40.9535501 111.18178341 43 110 C46.83614957 109.64480097 49.14629634 109.45275406 52.4375 111.5625 C54.60396028 114.94217804 54.56288002 117.05983987 54 121 C52.375 123.4375 52.375 123.4375 50 125 C47 125.5 47 125.5 44 125 C43.40348633 124.34225586 42.80697266 123.68451172 42.19238281 123.00683594 C39.3429504 120.39855816 37.74020083 120.46549413 33.921875 120.390625 C32.18164062 120.34228516 32.18164062 120.34228516 30.40625 120.29296875 C29.1996875 120.27878906 27.993125 120.26460938 26.75 120.25 C25.52796875 120.22035156 24.3059375 120.19070313 23.046875 120.16015625 C20.03118356 120.08947598 17.0162645 120.03676825 14 120 C14 122.97 14 125.94 14 129 C15.14597656 128.91878906 16.29195313 128.83757812 17.47265625 128.75390625 C19.00252385 128.68820641 20.53247843 128.6245108 22.0625 128.5625 C23.19075195 128.47452148 23.19075195 128.47452148 24.34179688 128.38476562 C30.11266554 128.20989082 30.11266554 128.20989082 32.76025391 130.56738281 C33.3072998 131.2012793 33.8543457 131.83517578 34.41796875 132.48828125 C37.16160079 135.60336859 38.78928348 136.52348629 42.953125 136.7890625 C44.7195009 136.77066275 46.48583634 136.71527153 48.25 136.625 C49.1471875 136.61855469 50.044375 136.61210937 50.96875 136.60546875 C55.65321223 136.65918797 55.65321223 136.65918797 59.71777344 134.68505859 C61.2743846 132.86030589 61.2743846 132.86030589 61.9375 129.5 C63 126 63 126 64.6875 124.0625 C68.05496254 122.51528748 70.33702407 122.48589812 74 123 C77 125.0625 77 125.0625 79 128 C79 131.47333287 78.77001578 133.80219767 76.875 136.75 C75 138 75 138 71.75 139.0625 C66.38363921 141.15195537 63.95465173 146.34266761 61 151 C58.32430007 153.67569993 51.0217206 152.47941564 47.4375 152.5625 C46.26896484 152.62501953 45.10042969 152.68753906 43.89648438 152.75195312 C35.15187379 152.91471237 35.15187379 152.91471237 31.72924805 150.19677734 C30.44828337 148.74382458 29.18409105 147.27588964 27.93823242 145.79272461 C24.9743741 143.05137033 22.42757047 143.25471995 18.52929688 143.33203125 C17.67400391 143.38746094 16.81871094 143.44289063 15.9375 143.5 C10.51558396 143.84980103 6.2086483 143.94740496 1.90625 140.28125 C-3.52456212 133.10700793 -1.70483565 122.49853553 -1.4375 114 C-1.40235314 112.06125404 -1.37042007 110.122447 -1.34179688 108.18359375 C-1.26500946 103.45421147 -1.1444106 98.72778096 -1 94 C-1.58802399 94.01110306 -2.17604797 94.02220612 -2.78189087 94.03364563 C-8.91384662 94.14444628 -15.04551705 94.21975287 -21.17822266 94.2746582 C-23.46544957 94.29976942 -25.7525965 94.33386516 -28.03955078 94.37719727 C-31.33125565 94.43799581 -34.6218977 94.4662444 -37.9140625 94.48828125 C-39.44252304 94.52699089 -39.44252304 94.52699089 -41.00186157 94.56648254 C-48.94781938 94.56960664 -48.94781938 94.56960664 -52.54663086 91.64282227 C-57.88541979 85.89176343 -59.67607183 82.07116157 -59.5625 74.375 C-59.59827148 73.24964844 -59.59827148 73.24964844 -59.63476562 72.1015625 C-59.62495575 68.41304864 -59.42693156 66.46165428 -56.88671875 63.71484375 C-53.6993889 61.82142317 -50.50696258 59.95768492 -47.25 58.1875 C-37.40431322 52.6816546 -29.23222876 45.68679604 -21 38 C-20.17371094 37.23945313 -19.34742188 36.47890625 -18.49609375 35.6953125 C-9.77435901 27.36939983 -0.77153908 18.62603784 0.125 6.125 C0.08375 4.10375 0.0425 2.0825 0 0 Z M207 17 C207.66 17.66 208.32 18.32 209 19 C209 18.34 209 17.68 209 17 C208.34 17 207.68 17 207 17 Z M-2 28 C-5.55115992 32.32797615 -6.48012218 35.47353241 -6.7265625 41.046875 C-7 43 -7 43 -9 45 C-9.18729753 47.56927031 -9.25574642 50.02873977 -9.23046875 52.59765625 C-9.23001053 53.34712021 -9.22955231 54.09658417 -9.2290802 54.86875916 C-9.22605811 56.45329369 -9.21817306 58.03782526 -9.20581055 59.62231445 C-9.18754683 62.05625858 -9.18530089 64.48982262 -9.18554688 66.92382812 C-9.18063201 68.46094081 -9.17480382 69.9980509 -9.16796875 71.53515625 C-9.16685593 72.26742935 -9.1657431 72.99970245 -9.16459656 73.75416565 C-9.43484308 77.16523002 -9.43484308 77.16523002 -8 80 C-5.69 80 -3.38 80 -1 80 C-1 62.84 -1 45.68 -1 28 C-1.33 28 -1.66 28 -2 28 Z M215 28 C215 45.16 215 62.32 215 80 C217.64 80 220.28 80 223 80 C223.04942899 75.07040878 223.08573318 70.14096175 223.10986328 65.21118164 C223.11992237 63.53407275 223.13357122 61.85698139 223.15087891 60.17993164 C223.17513152 57.76964998 223.1864839 55.35960014 223.1953125 52.94921875 C223.21079636 51.82407112 223.21079636 51.82407112 223.22659302 50.67619324 C223.227408 46.89699221 223.15057067 45.22585601 221 42 C221 39.66666667 221 37.33333333 221 35 C220.34 34.01 219.68 33.02 219 32 C218.34 32 217.68 32 217 32 C216.34 30.68 215.68 29.36 215 28 Z M13 29 C13 45.83 13 62.66 13 80 C20.49152482 80.73960026 20.49152482 80.73960026 24 78 C24.36668946 75.24513772 24.54002649 72.72101572 24.57421875 69.95703125 C24.5889473 69.1552092 24.60367584 68.35338715 24.61885071 67.52726746 C24.64283049 65.82678782 24.65823166 64.1261691 24.66577148 62.42553711 C24.68728894 59.83788123 24.76735828 57.25626177 24.84960938 54.66992188 C25.23619138 46.09768111 25.23619138 46.09768111 22.22314453 38.36645508 C20.22968266 36.66087796 18.22379973 35.3738901 16 34 C14.5 31.0625 14.5 31.0625 14 29 C13.67 29 13.34 29 13 29 Z M200 31 C198.63562604 32.62019408 197.30832707 34.27171928 196 35.9375 C192.05960265 40.94039735 192.05960265 40.94039735 191 42 C190.91138008 44.8116338 190.88477645 47.59858255 190.90234375 50.41015625 C190.9037587 51.25219101 190.90517365 52.09422577 190.90663147 52.96177673 C190.91224737 55.66205335 190.92480252 58.36224828 190.9375 61.0625 C190.94251295 62.88867068 190.94707621 64.71484266 190.95117188 66.54101562 C190.96222196 71.02737542 190.97949721 75.51367384 191 80 C194.3 80 197.6 80 201 80 C201 63.83 201 47.66 201 31 C200.67 31 200.34 31 200 31 Z M226 38 C227 40 227 40 227 40 Z M-17.3828125 46.35546875 C-17.95773438 46.96003906 -18.53265625 47.56460938 -19.125 48.1875 C-22.4940893 51.62634271 -26.0529362 54.26122104 -30 57 C-30 57.33 -30 57.66 -30 58 C-25.545 58.99 -25.545 58.99 -21 60 C-19.75 66.625 -19.75 66.625 -22 70 C-22.24107326 72.28648848 -22.24107326 72.28648848 -22.125 74.6875 C-22.10695313 75.49574219 -22.08890625 76.30398437 -22.0703125 77.13671875 C-22.04710937 77.75160156 -22.02390625 78.36648437 -22 79 C-18.535 78.505 -18.535 78.505 -15 78 C-15 75.36 -15 72.72 -15 70 C-15.66 70 -16.32 70 -17 70 C-16.67257813 69.38769531 -16.34515625 68.77539062 -16.0078125 68.14453125 C-14.5654729 63.64420809 -14.78877916 59.37990364 -14.875 54.6875 C-14.88402344 53.75615234 -14.89304687 52.82480469 -14.90234375 51.86523438 C-14.92581737 49.5765564 -14.95865271 47.28841328 -15 45 C-16.2037036 44.88333152 -16.2037036 44.88333152 -17.3828125 46.35546875 Z M230 46 C230 56.89 230 67.78 230 79 C232.31 79 234.62 79 237 79 C237.05399736 77.54207116 237.09279177 76.08357288 237.125 74.625 C237.14820313 73.81289062 237.17140625 73.00078125 237.1953125 72.1640625 C237.21370051 69.78657757 237.21370051 69.78657757 235 68 C234.65509678 63.94738713 234.69836118 62.45245824 237 59 C239.1640625 58.70703125 239.1640625 58.70703125 241.625 58.8125 C242.44226563 58.83957031 243.25953125 58.86664063 244.1015625 58.89453125 C244.72804688 58.92933594 245.35453125 58.96414062 246 59 C246.96833176 64.28180961 246.96833176 64.28180961 247 67 C246.00692179 68.33849671 245.00642948 69.67151309 244 71 C243.72637259 74.01516357 243.82579494 76.98044564 244 80 C246.31 80 248.62 80 251 80 C250.649375 79.46375 250.29875 78.9275 249.9375 78.375 C248.68143392 75.19296594 249.07929747 73.25787048 250 70 C254.1795645 67.21362367 256.14668677 68.20437488 261 69 C261.25 76.625 261.25 76.625 259 80 C261.37753738 79.93950287 263.74919061 79.85232887 266.125 79.75 C266.79015625 79.73582031 267.4553125 79.72164062 268.140625 79.70703125 C273.35387161 79.45147995 276.0469023 78.1772561 280 75 C280 74.67 280 74.34 280 74 C279.28199219 73.83886719 278.56398438 73.67773438 277.82421875 73.51171875 C260.99798236 69.09037893 246.54727279 58.62007988 233.2421875 47.74609375 C231.34214868 45.89759728 231.34214868 45.89759728 230 46 Z M30 48 C30 58.56 30 69.12 30 80 C34.62 80 39.24 80 44 80 C45.86024828 65.77117338 45.86024828 65.77117338 41.65625 52.8828125 C38.78339293 51.12129751 36.22932944 49.93935632 33 49 C32.01 48.67 31.02 48.34 30 48 Z M171 56 C169.76146853 60.17948615 170.04477405 64.06174102 170.375 68.375 C170.42011719 69.49261719 170.46523438 70.61023438 170.51171875 71.76171875 C170.62917193 74.51012312 170.80854124 77.25575778 171 80 C175.29 80 179.58 80 184 80 C184 70.1 184 60.2 184 50 C178.78258052 50 174.6945468 52.39544216 171 56 Z M-41.5 64.4375 C-48.86758475 68.93379237 -48.86758475 68.93379237 -51 70 C-51 73.3 -51 76.6 -51 80 C-48.69 80 -46.38 80 -44 80 C-44.66 79.67 -45.32 79.34 -46 79 C-46.47945205 72.76712329 -46.47945205 72.76712329 -44.4375 69.5 C-42 68 -42 68 -38.5 67.8125 C-34.7778785 69.07536265 -34.38739602 69.36730839 -32.5625 72.5625 C-32.046875 73.696875 -31.53125 74.83125 -31 76 C-29.9494905 72.77500929 -30.0923824 70.70197387 -30.9375 67.4375 C-31.61572028 64.77402567 -32 62.77579733 -32 60 C-35.57982916 60 -38.5152377 62.59922116 -41.5 64.4375 Z M50 60 C50 66.6 50 73.2 50 80 C54.29 80 58.58 80 63 80 C63 75.05 63 70.1 63 65 C58.71 63.35 54.42 61.7 50 60 Z M158.4375 62 C156.643125 62.66 154.84875 63.32 153 64 C153 69.28 153 74.56 153 80 C156.96 80 160.92 80 165 80 C165 73.4 165 66.8 165 60 C162.79341906 60 160.46909637 61.25274616 158.4375 62 Z M70 68 C70 71.96 70 75.92 70 80 C76.67405852 80.4872787 76.67405852 80.4872787 83 79 C83.41725678 75.62599422 83.41725678 75.62599422 83 72 C79.26519763 68.49862277 74.8974569 68.41503872 70 68 Z M132 70 C132 72.97 132 75.94 132 79 C134.14576637 79.02685938 136.29162645 79.04633088 138.4375 79.0625 C140.22994141 79.07990234 140.22994141 79.07990234 142.05859375 79.09765625 C144.88873341 79.33901792 144.88873341 79.33901792 146 78 C146.37052339 72.82264323 146.37052339 72.82264323 145 68 C140.34894377 67.70930899 136.45535765 68.79176742 132 70 Z M90 72 C90 74.31 90 76.62 90 79 C94.95 79.33 99.9 79.66 105 80 C105 79.34 105 78.68 105 78 C104.67 77.67 104.34 77.34 104 77 C104.33 77 104.66 77 105 77 C105 75.35 105 73.7 105 72 C100.05 72 95.1 72 90 72 Z M111 72 C111 74.64 111 77.28 111 80 C112.95803507 80.05389087 114.91648909 80.09274217 116.875 80.125 C117.96554688 80.14820313 119.05609375 80.17140625 120.1796875 80.1953125 C123.1371051 80.30060534 123.1371051 80.30060534 125 78 C125 76.02 125 74.04 125 72 C120.38 72 115.76 72 111 72 Z M-33 76 C-33.66 77.32 -34.32 78.64 -35 80 C-33.02 80 -31.04 80 -29 80 C-29 79.01 -29 78.02 -29 77 C-30.32 76.67 -31.64 76.34 -33 76 Z M283 77 C283.31710937 77.56203125 283.63421875 78.1240625 283.9609375 78.703125 C285.06874525 81.15196317 285.38975399 83.08387855 285.625 85.75 C285.69976562 86.54921875 285.77453125 87.3484375 285.8515625 88.171875 C285.90054687 88.77515625 285.94953125 89.3784375 286 90 C286.66 89.67 287.32 89.34 288 89 C288.37552165 82.68731397 288.37552165 82.68731397 286 77 C285.01 77 284.02 77 283 77 Z M278 83 C278.33 83.99 278.66 84.98 279 86 C279 85.01 279 84.02 279 83 C278.67 83 278.34 83 278 83 Z M169 85 C168.67 85.66 168.34 86.32 168 87 C168.66 87 169.32 87 170 87 C169.67 86.34 169.34 85.68 169 85 Z M276.7734375 92.4375 C275.2265625 92.57285156 275.2265625 92.57285156 273.6484375 92.7109375 C272.56820313 92.80632812 271.48796875 92.90171875 270.375 93 C269.28703125 93.09539062 268.1990625 93.19078125 267.078125 93.2890625 C264.38534802 93.52527101 261.69264422 93.76228358 259 94 C260.57365482 95.86212738 261.48428854 96.89538387 263.91357422 97.38818359 C264.6201416 97.39156738 265.32670898 97.39495117 266.0546875 97.3984375 C266.83457031 97.40230469 267.61445313 97.40617187 268.41796875 97.41015625 C269.63419922 97.39275391 269.63419922 97.39275391 270.875 97.375 C272.07962891 97.39240234 272.07962891 97.39240234 273.30859375 97.41015625 C278.0469753 97.38673756 281.10183309 96.98280788 285 94 C284.67 93.34 284.34 92.68 284 92 C281.5702269 92 279.19444428 92.22466424 276.7734375 92.4375 Z M169 107 C169 107.99 169 108.98 169 110 C169.66 109.34 170.32 108.68 171 108 C170.34 107.67 169.68 107.34 169 107 Z M46 116 C46 116.66 46 117.32 46 118 C46.66 118 47.32 118 48 118 C48 117.34 48 116.68 48 116 C47.34 116 46.68 116 46 116 Z M195.1875 119.5625 C193.78770618 120.94622821 193.78770618 120.94622821 194 123 C192.93072266 122.89558594 192.93072266 122.89558594 191.83984375 122.7890625 C186.8486093 122.50692004 182.99836258 122.31669671 178.9375 125.5 C175.47573112 128.97829284 174.78189837 132.23041992 174 137 C173.67 137.99 173.34 138.98 173 140 C176.77193188 138.62756213 178.8088123 136.15131667 181.41674805 133.2512207 C189.61968596 124.21107447 189.61968596 124.21107447 196.1875 123.8125 C197.50814453 123.88404297 197.50814453 123.88404297 198.85546875 123.95703125 C199.91701172 123.97830078 199.91701172 123.97830078 201 124 C203.41121859 122.04366025 203.41121859 122.04366025 203.125 118.375 C203.08375 117.26125 203.0425 116.1475 203 115 C200.17459444 115 197.23239895 117.79965607 195.1875 119.5625 Z M167 132 C167 132.66 167 133.32 167 134 C167.66 133.67 168.32 133.34 169 133 C168.34 132.67 167.68 132.34 167 132 Z M227 135 C227.33 135.66 227.66 136.32 228 137 C228.66 137 229.32 137 230 137 C230 136.34 230 135.68 230 135 C229.01 135 228.02 135 227 135 Z M138 136 C138 136.99 138 137.98 138 139 C138.66 138.34 139.32 137.68 140 137 C139.34 136.67 138.68 136.34 138 136 Z M57 143 C58 145 58 145 58 145 Z " fill="#171717" transform="translate(127,145)"/>
<path d="M0 0 C4.04286312 62.91427377 4.04286312 62.91427377 0 71 C-5.94 70.67 -11.88 70.34 -18 70 C-19.61301773 66.77396455 -19.12053599 63.25289962 -19.09765625 59.7109375 C-19.0962413 58.89251373 -19.09482635 58.07408997 -19.09336853 57.23086548 C-19.0877629 54.61220675 -19.07520948 51.99363296 -19.0625 49.375 C-19.05748572 47.60156373 -19.05292269 45.82812613 -19.04882812 44.0546875 C-19.03779164 39.70309218 -19.02052325 35.3515605 -19 31 C-25.73479443 39.95177927 -32.45211331 48.90999259 -39 58 C-42.08498196 56.66426012 -43.78646108 55.3602705 -45.76953125 52.65625 C-46.26646484 51.9859375 -46.76339844 51.315625 -47.27539062 50.625 C-48.03625977 49.573125 -48.03625977 49.573125 -48.8125 48.5 C-49.30814453 47.8296875 -49.80378906 47.159375 -50.31445312 46.46875 C-54.30605983 41.04386367 -58.13633513 35.51952124 -62 30 C-62.33 43.2 -62.66 56.4 -63 70 C-70.11868525 70.79096503 -74.30360667 70.95662762 -81 70 C-81.78732433 65.83268584 -82.12627806 61.89781959 -82.12939453 57.65917969 C-82.13254669 56.42480164 -82.13569885 55.19042358 -82.13894653 53.91864014 C-82.1369223 52.59970764 -82.13489807 51.28077515 -82.1328125 49.921875 C-82.13348673 48.54518619 -82.13445775 47.16849749 -82.13571167 45.79180908 C-82.13718107 42.91718402 -82.13505719 40.04259017 -82.13037109 37.16796875 C-82.12465269 33.48021358 -82.12797087 29.79253085 -82.13394356 26.10477829 C-82.13755133 23.26698253 -82.13640996 20.42920405 -82.13381577 17.59140778 C-82.13314821 16.23101035 -82.13396895 14.87061136 -82.13629532 13.51021576 C-82.13882766 11.6145582 -82.13428531 9.71889513 -82.12939453 7.82324219 C-82.12859894 6.7443573 -82.12780334 5.66547241 -82.12698364 4.55389404 C-82 2 -82 2 -81 0 C-62.6184298 -1.78183605 -62.6184298 -1.78183605 -57.17578125 1.921875 C-55.11722265 4.83924526 -53.58232523 7.79897426 -52 11 C-50.27670027 13.73440209 -48.44667173 16.39301431 -46.625 19.0625 C-45.78300563 20.34449518 -44.9418032 21.627011 -44.1015625 22.91015625 C-42.17527058 25.94940289 -42.17527058 25.94940289 -40 28 C-34.18796978 20.33721155 -29.03469686 12.39865365 -24.00390625 4.2109375 C-22 1 -22 1 -21 0 C-18.41015014 -0.26608047 -15.84678984 -0.46955835 -13.25 -0.625 C-12.53328125 -0.6765625 -11.8165625 -0.728125 -11.078125 -0.78125 C-7.17066682 -1.02546614 -3.80538433 -0.85361352 0 0 Z " fill="#0E0E0E" transform="translate(671,49)"/>
<path d="M0 0 C1.01727847 2.63623994 1.0547216 3.83093089 0.171875 6.55859375 C-4.17140902 15.35255067 -10.3487475 25.44180398 -18.84765625 30.79296875 C-21.32378232 33.33200909 -21.3181638 33.78776779 -21.3046875 37.17578125 C-21.18569308 38.88987556 -21.04070171 40.60228892 -20.875 42.3125 C-20.813125 43.22733154 -20.75125 44.14216309 -20.6875 45.0847168 C-20.41581893 49.09642733 -20.08114531 53.10089869 -19.71972656 57.10546875 C-19.44935802 60.17285283 -19.22375932 63.24141577 -19 66.3125 C-18.89800293 67.25971924 -18.79600586 68.20693848 -18.69091797 69.18286133 C-18.40608895 73.27500207 -18.30703011 75.91658488 -20.5625 79.44287109 C-22.28822679 81.42476045 -24.04535584 83.24574426 -26 85 C-27.90234375 84.69628906 -27.90234375 84.69628906 -30 84 C-31.21820786 81.55140219 -32.13446275 79.32186527 -33 76.75 C-33.25346191 76.03505371 -33.50692383 75.32010742 -33.76806641 74.58349609 C-40 56.79545005 -40 56.79545005 -40 53 C-45.59636858 53.47910624 -48.28738323 56.72613136 -52.15820312 60.49414062 C-55.82594922 64 -55.82594922 64 -58 64 C-57.835 65.11375 -57.67 66.2275 -57.5 67.375 C-55.8763485 81.24984013 -55.8763485 81.24984013 -59.3125 85.625 C-62 88 -62 88 -65 88 C-67.13354252 83.88005583 -69.04482534 79.98864418 -70.4375 75.5625 C-70.953125 74.386875 -71.46875 73.21125 -72 72 C-74.57080135 70.86559222 -74.57080135 70.86559222 -77 71 C-77.04382813 70.24074219 -77.08765625 69.48148437 -77.1328125 68.69921875 C-77.76579921 65.7627486 -77.76579921 65.7627486 -80.6171875 64.26953125 C-81.69226563 63.78871094 -82.76734375 63.30789062 -83.875 62.8125 C-87.11497965 61.33303941 -90.03203214 59.97864524 -93 58 C-92.67557883 54.99910419 -92.45199261 53.43353754 -90.23608398 51.30810547 C-87.53834112 49.72993031 -86.50382516 49.8346659 -83.47265625 50.3828125 C-73.88793736 52.05952305 -73.88793736 52.05952305 -64.74707031 49.78466797 C-60.47076654 46.39607443 -57.32976103 42.28743566 -54 38 C-54.98919434 37.56131592 -55.97838867 37.12263184 -56.99755859 36.6706543 C-60.66542794 35.04127746 -64.32807738 33.40044844 -67.98925781 31.75610352 C-69.57476955 31.04593314 -71.16168105 30.33887932 -72.75 29.63500977 C-75.03239842 28.62290872 -77.30953323 27.59971765 -79.5859375 26.57421875 C-80.65320572 26.1052845 -80.65320572 26.1052845 -81.74203491 25.62687683 C-85.18958833 24.06063138 -86.85212522 23.22181217 -89 20 C-82.83897863 13.83897863 -82.83897863 13.83897863 -78.078125 13.7890625 C-72.71613325 13.82874568 -67.53509408 14.35911463 -62.234375 15.0859375 C-61.46492554 15.18867981 -60.69547607 15.29142212 -59.90270996 15.39727783 C-56.70699958 15.82663488 -53.51305424 16.25898994 -50.32519531 16.74365234 C-41.20278858 18.40469387 -41.20278858 18.40469387 -32.30249023 16.92749023 C-30.27363261 15.42646549 -28.67134277 13.88455485 -27 12 C-25.57880859 10.78763672 -25.57880859 10.78763672 -24.12890625 9.55078125 C-23.28199219 8.81214844 -22.43507813 8.07351562 -21.5625 7.3125 C-14.75187843 1.71705157 -8.77754047 -0.56026854 0 0 Z " fill="#0C0C0C" transform="translate(384,41)"/>
<path d="M0 0 C0.80078125 2.1328125 0.80078125 2.1328125 1 4 C-3.95383794 7.30255863 -9.47162698 4.92847212 -15.0480957 3.84399414 C-40.79754083 -1.04848859 -65.23065247 5.80039059 -87 20 C-99.4008789 28.84909718 -111.31238251 41.51016366 -114.68359375 56.84765625 C-115.90279872 64.08929151 -115.90279872 64.08929151 -113.80078125 70.76171875 C-109.77548771 73.52965379 -104.63174406 72.50399827 -100 72 C-74.09827309 66.97053846 -46.19190019 52.50230588 -24.97705078 37.09716797 C-23 36 -23 36 -19 36 C-18.67 36.99 -18.34 37.98 -18 39 C-32.4524602 54.48477879 -50.9870069 65.8703622 -69.9375 75 C-70.85974365 75.44472656 -71.7819873 75.88945312 -72.73217773 76.34765625 C-87.24061591 83.12940811 -102.96297268 87.93249329 -119.0390625 84.31640625 C-123.96294542 82.33203203 -126.62116681 79.85281971 -129 75 C-130.93227662 69.66012744 -131.11465272 65.44777593 -130.0625 59.9375 C-129.92481201 59.19943115 -129.78712402 58.4613623 -129.64526367 57.70092773 C-127.17078133 45.82877239 -121.09367559 35.92896596 -113 27 C-112.23429687 26.11828125 -111.46859375 25.2365625 -110.6796875 24.328125 C-86.76793802 -1.55798912 -32.82349377 -18.84425721 0 0 Z " fill="#151515" transform="translate(287,91)"/>
<path d="M0 0 C0.75861328 -0.01611328 1.51722656 -0.03222656 2.29882812 -0.04882812 C11.79988765 -0.05692792 20.59407782 3.47331477 28.0625 9.3125 C34.14867835 16.66605188 34.82591181 23.98559925 34.0625 33.3125 C32.3873099 39.8318704 27.70200471 44.81547588 22.0625 48.3125 C15.54273866 51.25019531 9.56922716 51.7006588 2.5 51.5 C-2.1715625 51.4071875 -2.1715625 51.4071875 -6.9375 51.3125 C-6.9375 58.2425 -6.9375 65.1725 -6.9375 72.3125 C-9.886875 72.333125 -12.83625 72.35375 -15.875 72.375 C-17.27093384 72.38865601 -17.27093384 72.38865601 -18.69506836 72.40258789 C-19.78766968 72.40633423 -19.78766968 72.40633423 -20.90234375 72.41015625 C-21.6512085 72.41539307 -22.40007324 72.42062988 -23.17163086 72.42602539 C-24.9375 72.3125 -24.9375 72.3125 -25.9375 71.3125 C-26.34882122 66.93097566 -26.42186481 62.5227756 -26.5625 58.125 C-26.58529022 57.454758 -26.60808044 56.78451599 -26.63156128 56.09396362 C-27.21548003 38.15742819 -26.58166369 20.23953178 -25.9375 2.3125 C-8.57610007 -0.03778018 -8.57610007 -0.03778018 0 0 Z M-6.9375 17.3125 C-6.9375 23.2525 -6.9375 29.1925 -6.9375 35.3125 C3.07450609 35.9965169 3.07450609 35.9965169 12.0625 32.3125 C14.47589891 30.32290592 14.47589891 30.32290592 14.4375 26.4375 C14.36818818 23.25493212 14.20923726 22.50325844 12.1875 19.875 C8.28217857 17.00344013 5.12289405 17.19423325 0.4375 17.25 C-1.99625 17.270625 -4.43 17.29125 -6.9375 17.3125 Z " fill="#0C0C0C" transform="translate(462.9375,47.6875)"/>
<path d="M0 0 C0 0.66 0 1.32 0 2 C1.36125 1.8453125 1.36125 1.8453125 2.75 1.6875 C11.73355999 1.70575927 19.80160593 6.94247853 26 13 C24.19617762 18.41146715 19.03299409 21.61161379 14.4375 24.75 C11.4534252 25.05605895 10.8770399 24.46760303 8.5 22.75 C7.9534375 22.29109375 7.406875 21.8321875 6.84375 21.359375 C1.39503892 17.34210497 -4.4895255 17.26968685 -11 18 C-16.0696441 19.49242937 -20.84694878 21.63423677 -24 26 C-27.07176207 31.74285953 -27.90921872 37.5639574 -27 44 C-25.61446783 48.55581765 -23.80361396 51.33614499 -20.125 54.375 C-13.07475682 58.04112646 -5.72727621 59.53709986 2.125 57.4296875 C4.75392217 56.3531892 6.89777219 55.08673875 9.0625 53.25 C11 52 11 52 13.6875 51.8125 C18.77513812 53.63637027 22.17537469 57.26886553 26 61 C23.52501328 67.39840318 16.57361223 70.24990908 10.71875 73.1171875 C0.78839973 76.78861982 -13.86639461 76.77644797 -23.796875 73.11328125 C-30.25711447 69.84879854 -36.27343797 65.49303155 -41 60 C-41.61101562 59.38511719 -42.22203125 58.77023438 -42.8515625 58.13671875 C-48.88229001 51.18095933 -48.97677327 44.3760467 -48.484375 35.578125 C-47.62948902 25.98614747 -44.38512565 18.32641883 -37 12 C-25.77843223 3.68883885 -13.9330086 0 0 0 Z " fill="#080808" transform="translate(553,46)"/>
<path d="M0 0 C4.90370876 2.80548723 7.85213588 6.12149219 10.625 11 C11.0375 11.69480469 11.45 12.38960937 11.875 13.10546875 C16.26309658 21.95784415 16.06879782 33.14175839 13.7421875 42.58203125 C10.81863032 50.27815032 6.61275837 55.28107384 -0.125 59.875 C-7.33043527 62.36918913 -14.28597571 62.82704514 -21.4453125 60.01171875 C-24.3807537 58.47269189 -26.25756683 56.52915629 -28.375 54 C-29.220625 53.13375 -30.06625 52.2675 -30.9375 51.375 C-36.61124695 44.37259079 -38.20470429 35.75798972 -37.375 27 C-37.30410156 26.02933594 -37.23320313 25.05867188 -37.16015625 24.05859375 C-36.16181352 15.27542123 -32.8305825 9.00676009 -26.2421875 3.08203125 C-18.3975417 -3.01131909 -9.22795794 -4.17288538 0 0 Z M-19.375 15 C-23.37775773 20.30094942 -24.62128001 25.37014212 -24.375 32 C-23.54759385 37.1035583 -22.51103515 40.86396485 -18.8125 44.5625 C-14.05166728 47.37017058 -10.74567888 47.35660747 -5.375 46 C-1.58041915 43.09351254 0.14694204 40.47915824 1.625 36 C2.48783421 28.90659458 2.56374125 22.42795827 -1.80859375 16.5234375 C-7.23791338 11.24305183 -13.10614517 11.0339898 -19.375 15 Z " fill="#131313" transform="translate(654.375,135)"/>
<path d="M0 0 C1.16853516 -0.02900391 2.33707031 -0.05800781 3.54101562 -0.08789062 C10.68343628 -0.14026032 15.39653627 0.40866966 21.4375 4.3125 C27.41091258 10.59224143 27.41863191 17.96337102 27.4375 26.3125 C26.46183532 31.53674088 23.33649133 34.83502125 19.4375 38.3125 C21.22794307 43.28804707 23.92674132 47.66358975 26.69140625 52.140625 C28.79247772 55.68089195 29.92363859 58.17248106 29.4375 62.3125 C18.00311126 63.51788212 18.00311126 63.51788212 14.671875 60.953125 C13.33835221 58.80170823 12.3963784 56.65642498 11.4375 54.3125 C10.34150486 52.14168837 9.23706096 49.97512546 8.125 47.8125 C7.22517674 45.98112167 6.32794005 44.14845887 5.4375 42.3125 C2.4675 42.8075 2.4675 42.8075 -0.5625 43.3125 C-0.55089844 44.60027344 -0.53929687 45.88804687 -0.52734375 47.21484375 C-0.5179673 48.89322772 -0.50886695 50.57161326 -0.5 52.25 C-0.49162109 53.10013672 -0.48324219 53.95027344 -0.47460938 54.82617188 C-0.47138672 55.63505859 -0.46816406 56.44394531 -0.46484375 57.27734375 C-0.45960693 58.0262085 -0.45437012 58.77507324 -0.44897461 59.54663086 C-0.5625 61.3125 -0.5625 61.3125 -1.5625 62.3125 C-3.39365883 62.41101171 -5.22869933 62.44222629 -7.0625 62.4375 C-8.0628125 62.44007813 -9.063125 62.44265625 -10.09375 62.4453125 C-12.5625 62.3125 -12.5625 62.3125 -13.5625 61.3125 C-13.6616056 59.44614212 -13.69049261 57.57601806 -13.69189453 55.70703125 C-13.69504669 54.50908936 -13.69819885 53.31114746 -13.70144653 52.0769043 C-13.6994223 50.77277588 -13.69739807 49.46864746 -13.6953125 48.125 C-13.6959856 46.78360985 -13.69695568 45.44221981 -13.69821167 44.10083008 C-13.69968836 41.28628379 -13.69753504 38.47176918 -13.69287109 35.65722656 C-13.68717381 32.04209369 -13.69045297 28.42703505 -13.69644356 24.81190491 C-13.70004997 22.04105058 -13.69891022 19.27021398 -13.69631577 16.49935913 C-13.69532033 14.51560417 -13.69836741 12.53184853 -13.70144653 10.5480957 C-13.69829437 9.35015381 -13.69514221 8.15221191 -13.69189453 6.91796875 C-13.69109894 5.85731201 -13.69030334 4.79665527 -13.68948364 3.70385742 C-13.37462851 -2.22549813 -4.52376574 0.03658032 0 0 Z M-0.5625 14.3125 C-0.5625 18.9325 -0.5625 23.5525 -0.5625 28.3125 C2.3146875 28.43625 2.3146875 28.43625 5.25 28.5625 C6.32894531 28.60890625 7.40789063 28.6553125 8.51953125 28.703125 C11.51099409 28.59596756 11.51099409 28.59596756 13.296875 26.51953125 C14.9706146 23.28095976 14.89322794 20.89321956 14.4375 17.3125 C12.18105737 15.00849768 10.86647211 14.35743423 7.640625 14.01953125 C6.66609375 14.05433594 5.6915625 14.08914062 4.6875 14.125 C2.955 14.186875 1.2225 14.24875 -0.5625 14.3125 Z " fill="#0F0F0F" transform="translate(573.5625,133.6875)"/>
<path d="M0 0 C5.10863896 -0.0246501 10.21724359 -0.04283607 15.32592773 -0.05493164 C17.06519168 -0.05997204 18.80445136 -0.0668043 20.54370117 -0.07543945 C23.03825937 -0.08751792 25.53276173 -0.09323108 28.02734375 -0.09765625 C28.80963852 -0.10281754 29.59193329 -0.10797882 30.39793396 -0.11329651 C32.26567114 -0.11349226 34.13329204 -0.06199694 36 0 C37 1 37 1 37.1328125 3.65234375 C37.13023437 4.73644531 37.12765625 5.82054687 37.125 6.9375 C37.12886719 8.55978516 37.12886719 8.55978516 37.1328125 10.21484375 C37 13 37 13 36 15 C28.41 15 20.82 15 13 15 C13 17.97 13 20.94 13 24 C19.93 24 26.86 24 34 24 C34 28.62 34 33.24 34 38 C27.07 37.67 20.14 37.34 13 37 C13 40.3 13 43.6 13 47 C20.92 47 28.84 47 37 47 C38 55 38 55 37 62 C24.79 62 12.58 62 0 62 C-0.90125321 58.39498715 -1.09337388 55.88355382 -1.02172852 52.22167969 C-1.00163223 51.0607782 -0.98153595 49.89987671 -0.96083069 48.70379639 C-0.93379562 47.45576233 -0.90676056 46.20772827 -0.87890625 44.921875 C-0.85529526 43.64016418 -0.83168427 42.35845337 -0.80735779 41.03790283 C-0.74466779 37.63807923 -0.67555893 34.23841546 -0.60510254 30.83874512 C-0.53428239 27.36652882 -0.46954744 23.89419963 -0.40429688 20.421875 C-0.27547917 13.61446065 -0.13987847 6.80719581 0 0 Z " fill="#121212" transform="translate(506,134)"/>
<path d="M0 0 C1.79244141 0.01740234 1.79244141 0.01740234 3.62109375 0.03515625 C5.41740234 0.04869141 5.41740234 0.04869141 7.25 0.0625 C8.17683594 0.07410156 9.10367188 0.08570313 10.05859375 0.09765625 C13.21160893 8.57644448 16.10010953 17.13269956 18.93359375 25.72265625 C22.39323133 36.24576456 22.39323133 36.24576456 26.078125 46.69140625 C26.36510254 47.47563965 26.65208008 48.25987305 26.94775391 49.06787109 C27.46250659 50.45723109 27.98627039 51.84330174 28.52099609 53.22509766 C29.8907548 56.91779255 30.05888678 58.09648412 29.05859375 62.09765625 C25.09859375 62.09765625 21.13859375 62.09765625 17.05859375 62.09765625 C13.05859375 53.47265625 13.05859375 53.47265625 13.05859375 50.09765625 C6.78859375 50.09765625 0.51859375 50.09765625 -5.94140625 50.09765625 C-6.60140625 53.06765625 -7.26140625 56.03765625 -7.94140625 59.09765625 C-8.60140625 60.08765625 -9.26140625 61.07765625 -9.94140625 62.09765625 C-12.76171875 62.390625 -12.76171875 62.390625 -16.06640625 62.28515625 C-17.70996094 62.24455078 -17.70996094 62.24455078 -19.38671875 62.203125 C-20.65128906 62.15091797 -20.65128906 62.15091797 -21.94140625 62.09765625 C-22.95246661 58.98004366 -22.93136319 57.21382816 -21.84912109 54.13378906 C-21.58489349 53.36488342 -21.32066589 52.59597778 -21.0484314 51.80377197 C-20.75272247 50.97778503 -20.45701355 50.1517981 -20.15234375 49.30078125 C-19.70189194 48.00113434 -19.70189194 48.00113434 -19.24234009 46.67523193 C-18.27696152 43.89579171 -17.29730667 41.12165229 -16.31640625 38.34765625 C-15.04935784 34.72926457 -13.78818154 31.10884083 -12.52734375 27.48828125 C-12.2193988 26.60845581 -11.91145386 25.72863037 -11.59417725 24.82214355 C-9.39959237 18.52033873 -7.34787366 12.18501527 -5.43173218 5.79302979 C-3.71620589 0.12338001 -3.71620589 0.12338001 0 0 Z M3.05859375 20.09765625 C1.73859375 25.37765625 0.41859375 30.65765625 -0.94140625 36.09765625 C1.69859375 36.09765625 4.33859375 36.09765625 7.05859375 36.09765625 C6.4684419 30.58957228 5.49195606 25.44887556 4.05859375 20.09765625 C3.72859375 20.09765625 3.39859375 20.09765625 3.05859375 20.09765625 Z " fill="#101010" transform="translate(460.94140625,133.90234375)"/>
<path d="M0 0 C0.67160156 0.30292969 1.34320313 0.60585937 2.03515625 0.91796875 C1.52595373 5.09388204 0.4484426 6.98343244 -2.5703125 9.87890625 C-3.30701172 10.59820312 -4.04371094 11.3175 -4.80273438 12.05859375 C-5.57810547 12.7959375 -6.35347656 13.53328125 -7.15234375 14.29296875 C-11.88996021 18.86499078 -16.49615988 23.40616002 -20.71948242 28.46142578 C-22.20168652 30.19497404 -23.78552321 31.69691845 -25.52734375 33.16796875 C-26.20667969 33.74417969 -26.88601563 34.32039063 -27.5859375 34.9140625 C-28.76349609 35.90599609 -28.76349609 35.90599609 -29.96484375 36.91796875 C-30.92519531 37.75457031 -31.88554687 38.59117187 -32.875 39.453125 C-40.56927228 46.12800445 -48.57287078 52.15219504 -56.96484375 57.91796875 C-57.55491211 58.32901855 -58.14498047 58.74006836 -58.75292969 59.16357422 C-95.78052854 84.91796875 -95.78052854 84.91796875 -114.96484375 84.91796875 C-114.96484375 83.26796875 -114.96484375 81.61796875 -114.96484375 79.91796875 C-113.63151042 79.25130208 -112.29817708 78.58463542 -110.96484375 77.91796875 C-110.04445312 77.45519531 -109.1240625 76.99242187 -108.17578125 76.515625 C-105.93913659 75.40274463 -103.69356641 74.30769925 -101.44140625 73.2265625 C-80.60167396 63.16126031 -61.83734629 50.55695932 -43.96484375 35.91796875 C-43.11921875 35.23476562 -42.27359375 34.5515625 -41.40234375 33.84765625 C-36.31294266 29.71991525 -31.27279527 25.53380763 -26.27734375 21.29296875 C-25.70024658 20.8038501 -25.12314941 20.31473145 -24.52856445 19.81079102 C-21.14195868 16.90264202 -17.88423205 13.90147891 -14.69140625 10.78125 C-13.97686279 10.08789551 -13.26231934 9.39454102 -12.52612305 8.68017578 C-11.13176825 7.3180391 -9.74988385 5.94299527 -8.38208008 4.55419922 C-3.61216197 -0.09994124 -3.61216197 -0.09994124 0 0 Z " fill="#232223" transform="translate(305.96484375,113.08203125)"/>
<path d="M0 0 C5.18568535 -0.47535449 5.18568535 -0.47535449 8 0 C10.3125 2.40625 10.3125 2.40625 12 5.5 C12.5775 6.5209375 13.155 7.541875 13.75 8.59375 C14.1625 9.3878125 14.575 10.181875 15 11 C15.33 7.37 15.66 3.74 16 0 C18.31 0 20.62 0 23 0 C23 9.57 23 19.14 23 29 C21.35 29.33 19.7 29.66 18 30 C16.99421411 28.71283353 15.99553202 27.42011342 15 26.125 C14.443125 25.40570313 13.88625 24.68640625 13.3125 23.9453125 C12 22 12 22 12 20 C11.34 20 10.68 20 10 20 C9.67 19.01 9.34 18.02 9 17 C8.93941406 17.85464844 8.87882813 18.70929688 8.81640625 19.58984375 C8.73261719 20.69457031 8.64882813 21.79929688 8.5625 22.9375 C8.48128906 24.03964844 8.40007813 25.14179688 8.31640625 26.27734375 C8 29 8 29 7 30 C4 30.125 4 30.125 1 30 C0 29 0 29 -0.11352539 26.22436523 C-0.10828857 25.01466064 -0.10305176 23.80495605 -0.09765625 22.55859375 C-0.09443359 21.25341797 -0.09121094 19.94824219 -0.08789062 18.60351562 C-0.07953401 17.2148431 -0.07106905 15.82617123 -0.0625 14.4375 C-0.05748666 13.04492344 -0.05292347 11.65234519 -0.04882812 10.25976562 C-0.03699434 6.8398013 -0.0205088 3.41992156 0 0 Z " fill="#141414" transform="translate(621,208)"/>
<path d="M0 0 C2.4375 2.375 2.4375 2.375 4 5 C4.4125 5.598125 4.825 6.19625 5.25 6.8125 C7.02526214 11.9903479 6.51842313 16.46307575 4.25 21.3125 C2.53240107 24.34355693 1.24774613 26.50779232 -2 28 C-6.45511002 29.0818336 -9.91371557 29.34843086 -14.3125 27.9375 C-17.77204918 25.44340641 -19.23406539 23.93939258 -21 20 C-21.78152197 14.76515028 -22.24051587 9.53201185 -19.859375 4.671875 C-14.44571923 -2.10944117 -7.89305161 -3.20232379 0 0 Z M-11.625 7.125 C-13.56703767 9.77323318 -13.86928731 11.73218268 -14 15 C-13.02522193 17.87502253 -13.02522193 17.87502253 -11 20 C-8.56189845 21.15474612 -8.56189845 21.15474612 -6 21 C-3.86900776 19.40558854 -3.09540045 18.47442385 -2.56640625 15.84375 C-2.4169343 10.96692463 -2.4169343 10.96692463 -4.8125 6.9375 C-7.49432128 5.78814802 -9.14482154 5.40795337 -11.625 7.125 Z " fill="#212121" transform="translate(609,209)"/>
<path d="M0 0 C3.42734135 1.31259882 4.63661556 2.51131058 6.8125 5.4375 C8.94028439 11.82085318 9.16843634 18.27364854 6.5 24.5 C3.29960683 27.70039317 0.47427425 29.9838356 -4 31 C-8.84806202 30.55559432 -12.22423689 28.55854944 -16.125 25.75 C-19.33468786 21.33667919 -18.24119549 15.64841754 -17.72265625 10.5234375 C-16.76783209 5.86802455 -15.61767547 4.00002356 -12 1 C-8.30789552 -0.84605224 -4.03848091 -0.34397156 0 0 Z M-9.9375 9.5625 C-11.46168725 13.05916486 -10.92828981 15.35314716 -10 19 C-8.91325006 21.08984231 -8.91325006 21.08984231 -7 22 C-3.65807308 21.75546876 -2.39456443 21.39456443 0 19 C0.50966413 13.11663097 0.50966413 13.11663097 -2 8 C-5.42231925 7.49029288 -7.1956711 7.35134766 -9.9375 9.5625 Z " fill="#181818" transform="translate(481,208)"/>
<path d="M0 0 C1.4540625 0.0309375 1.4540625 0.0309375 2.9375 0.0625 C2.98648438 1.32707031 3.03546875 2.59164062 3.0859375 3.89453125 C3.1609738 5.55470947 3.23652127 7.21486464 3.3125 8.875 C3.3434375 9.70837891 3.374375 10.54175781 3.40625 11.40039062 C3.44492187 12.20283203 3.48359375 13.00527344 3.5234375 13.83203125 C3.5548584 14.57042236 3.5862793 15.30881348 3.61865234 16.06958008 C3.84584614 18.37599588 3.84584614 18.37599588 5.9375 21.0625 C7.2575 20.7325 8.5775 20.4025 9.9375 20.0625 C10.2675 13.4625 10.5975 6.8625 10.9375 0.0625 C13.2475 0.0625 15.5575 0.0625 17.9375 0.0625 C20.21780908 2.34280908 19.170325 7.6907023 19.1875 10.75 C19.208125 11.64912109 19.22875 12.54824219 19.25 13.47460938 C19.28108187 18.77018314 18.93119802 22.4962088 15.9375 27.0625 C12.98905934 29.58973485 10.66526772 30.25523318 6.875 30.375 C1.34659091 29.93623737 1.34659091 29.93623737 -1.0625 28.0625 C-5.15719663 23.22331308 -4.43571046 17.80360876 -4.3125 11.8125 C-4.30734375 10.79414063 -4.3021875 9.77578125 -4.296875 8.7265625 C-4.20470698 0.08581035 -4.20470698 0.08581035 0 0 Z " fill="#161616" transform="translate(523.0625,207.9375)"/>
<path d="M0 0 C2.30859375 1.53515625 2.30859375 1.53515625 4 3 C3.38722388 5.96175123 2.74627478 7.38058783 1 10 C0.01 10 -0.98 10 -2 10 C-2 9.34 -2 8.68 -2 8 C-2.99 8.66 -3.98 9.32 -5 10 C-4.44570313 10.23074219 -3.89140625 10.46148437 -3.3203125 10.69921875 C2.57421329 13.3528042 2.57421329 13.3528042 4.5625 16.375 C5.11380804 19.68284823 5.00515578 21.7835015 4 25 C1.3911183 28.45293166 -0.2667586 29.78669341 -4.4375 31 C-8.55333147 31 -10.60229091 30.29147823 -14 28 C-15.5625 26.125 -15.5625 26.125 -16 24 C-14.875 21.25 -14.875 21.25 -13 19 C-11.68 19 -10.36 19 -9 19 C-9 19.66 -9 20.32 -9 21 C-7.68 21 -6.36 21 -5 21 C-5.55429687 20.59007812 -6.10859375 20.18015625 -6.6796875 19.7578125 C-7.40414063 19.21898437 -8.12859375 18.68015625 -8.875 18.125 C-9.59429687 17.59132812 -10.31359375 17.05765625 -11.0546875 16.5078125 C-14.93239631 13.50219884 -14.93239631 13.50219884 -15.4375 9.75 C-15.00530419 6.04546451 -14.33548149 3.8596922 -11.76171875 1.1015625 C-8.20361192 -1.12324044 -3.99469863 -0.83791239 0 0 Z " fill="#1D1D1D" transform="translate(454,208)"/>
<path d="M0 0 C2.1875 1.6875 2.1875 1.6875 3.1875 4.6875 C1.75 7.375 1.75 7.375 0.1875 9.6875 C-0.575625 9.378125 -1.33875 9.06875 -2.125 8.75 C-4.00039677 8.00856407 -5.89934652 7.32521783 -7.8125 6.6875 C-7.8125 7.6775 -7.8125 8.6675 -7.8125 9.6875 C-7.18601562 9.86925781 -6.55953125 10.05101562 -5.9140625 10.23828125 C-5.09679687 10.48964844 -4.27953125 10.74101562 -3.4375 11 C-2.62539063 11.24363281 -1.81328125 11.48726562 -0.9765625 11.73828125 C1.1875 12.6875 1.1875 12.6875 3.1875 15.6875 C4.0246159 20.39297252 3.8566347 23.71421316 1.125 27.6875 C-2.41194442 30.09563237 -4.53813406 30.6875 -8.8125 30.6875 C-12.1326606 29.37196467 -14.2930934 28.2069066 -16.8125 25.6875 C-16.48278521 22.39035207 -16.1898161 21.0648161 -13.8125 18.6875 C-10.63969649 19.12512807 -7.75582389 20.46111505 -4.8125 21.6875 C-6.75099049 19.40692295 -8.76317698 18.12664838 -11.375 16.75 C-13.53884419 15.53769829 -14.74608601 14.77051749 -16.3125 12.8125 C-17.03320899 9.74948681 -16.67616318 7.71032114 -15.8125 4.6875 C-11.80619601 -1.32195599 -6.77638388 -3.16231248 0 0 Z " fill="#202020" transform="translate(666.8125,208.3125)"/>
<path d="M0 0 C3.31248187 -0.02888146 6.62493167 -0.04675799 9.9375 -0.0625 C10.88302734 -0.07087891 11.82855469 -0.07925781 12.80273438 -0.08789062 C14.15141602 -0.09272461 14.15141602 -0.09272461 15.52734375 -0.09765625 C16.77632446 -0.10551147 16.77632446 -0.10551147 18.05053711 -0.11352539 C20 0 20 0 21 1 C21.125 4 21.125 4 21 7 C20 8 20 8 17.4375 8.0625 C16.633125 8.041875 15.82875 8.02125 15 8 C15.00523682 8.63091553 15.01047363 9.26183105 15.01586914 9.91186523 C15.03657826 12.75373347 15.04964066 15.59558588 15.0625 18.4375 C15.07087891 19.43072266 15.07925781 20.42394531 15.08789062 21.44726562 C15.09111328 22.39150391 15.09433594 23.33574219 15.09765625 24.30859375 C15.10289307 25.18314209 15.10812988 26.05769043 15.11352539 26.95874023 C15 29 15 29 14 30 C11.69 30 9.38 30 7 30 C7 22.74 7 15.48 7 8 C4.69 8 2.38 8 0 8 C0 5.36 0 2.72 0 0 Z " fill="#232323" transform="translate(547,208)"/>
<path d="M0 0 C2.31 0 4.62 0 7 0 C8.17426264 2.34852528 8.11508173 3.73774065 8.09765625 6.3515625 C8.09443359 7.20234375 8.09121094 8.053125 8.08789062 8.9296875 C8.07951172 9.81914062 8.07113281 10.70859375 8.0625 11.625 C8.05798828 12.5221875 8.05347656 13.419375 8.04882812 14.34375 C8.03702591 16.56256648 8.02056155 18.78125018 8 21 C8.71027344 20.98839844 9.42054688 20.97679687 10.15234375 20.96484375 C11.07144531 20.95582031 11.99054688 20.94679687 12.9375 20.9375 C13.85402344 20.92589844 14.77054687 20.91429687 15.71484375 20.90234375 C18 21 18 21 19 22 C19.125 25.5 19.125 25.5 19 29 C18 30 18 30 16.23413086 30.11352539 C15.48526611 30.10828857 14.73640137 30.10305176 13.96484375 30.09765625 C12.87224243 30.09390991 12.87224243 30.09390991 11.75756836 30.09008789 C10.8269458 30.08098389 9.89632324 30.07187988 8.9375 30.0625 C4.5134375 30.0315625 4.5134375 30.0315625 0 30 C0 20.1 0 10.2 0 0 Z " fill="#262626" transform="translate(496,208)"/>
<path d="M0 0 C2.31 0 4.62 0 7 0 C7 9.9 7 19.8 7 30 C5.02 30 3.04 30 1 30 C0 29 0 29 -0.11352539 26.22436523 C-0.10828857 25.01466064 -0.10305176 23.80495605 -0.09765625 22.55859375 C-0.09443359 21.25341797 -0.09121094 19.94824219 -0.08789062 18.60351562 C-0.07953401 17.2148431 -0.07106905 15.82617123 -0.0625 14.4375 C-0.05748666 13.04492344 -0.05292347 11.65234519 -0.04882812 10.25976562 C-0.03699434 6.8398013 -0.0205088 3.41992156 0 0 Z " fill="#0A0A0A" transform="translate(574,208)"/>
<path d="M0 0 C1.27133789 0.00966797 1.27133789 0.00966797 2.56835938 0.01953125 C3.8899707 0.04466797 3.8899707 0.04466797 5.23828125 0.0703125 C6.57729492 0.08384766 6.57729492 0.08384766 7.94335938 0.09765625 C10.14610439 0.12121502 12.34830713 0.15410921 14.55078125 0.1953125 C14.88078125 0.8553125 15.21078125 1.5153125 15.55078125 2.1953125 C12.65528622 2.3907509 9.75969127 2.57692645 6.86328125 2.7578125 C6.04666016 2.81388672 5.23003906 2.86996094 4.38867188 2.92773438 C0.25564002 3.17872821 -3.40746157 3.30658993 -7.44921875 2.1953125 C-4.2960709 0.09321393 -3.58818794 -0.0481636 0 0 Z " fill="#000000" transform="translate(457.44921875,47.8046875)"/>
<path d="M0 0 C0.66 1.32 1.32 2.64 2 4 C0 6 0 6 -3.5 6.3125 C-4.655 6.209375 -5.81 6.10625 -7 6 C-7.66 5.01 -8.32 4.02 -9 3 C-6.03 3 -3.06 3 0 3 C0 2.01 0 1.02 0 0 Z " fill="#6E6E6E" transform="translate(468,167)"/>
<path d="M0 0 C1.17175781 0.04640625 2.34351563 0.0928125 3.55078125 0.140625 C5.32001953 0.19476563 5.32001953 0.19476563 7.125 0.25 C8.48044922 0.31960937 8.48044922 0.31960937 9.86328125 0.390625 C9.53328125 1.050625 9.20328125 1.710625 8.86328125 2.390625 C7.83267578 2.33841797 7.83267578 2.33841797 6.78125 2.28515625 C5.88019531 2.25808594 4.97914063 2.23101562 4.05078125 2.203125 C2.71080078 2.15091797 2.71080078 2.15091797 1.34375 2.09765625 C-1.5531939 2.43981498 -2.36226903 3.14456073 -4.13671875 5.390625 C-4.79671875 5.060625 -5.45671875 4.730625 -6.13671875 4.390625 C-4.39021305 1.18764703 -3.70818582 0.46179151 0 0 Z " fill="#303030" transform="translate(653.13671875,48.609375)"/>
<path d="M0 0 C0.33 0.99 0.66 1.98 1 3 C-3.82142857 8.22321429 -3.82142857 8.22321429 -8 9 C-7.04270084 7.87411986 -6.08412105 6.7493285 -5.125 5.625 C-4.59132813 4.99851562 -4.05765625 4.37203125 -3.5078125 3.7265625 C-2.38567993 2.44163349 -1.20628025 1.20628025 0 0 Z " fill="#4E4E4E" transform="translate(327,82)"/>
<path d="M0 0 C0 3 0 3 -2.3125 5.6875 C-5 8 -5 8 -8 8 C-5.36 5.36 -2.72 2.72 0 0 Z " fill="#545454" transform="translate(108,181)"/>
<path d="M0 0 C1.134375 0.020625 2.26875 0.04125 3.4375 0.0625 C2.839375 0.330625 2.24125 0.59875 1.625 0.875 C-0.60577908 1.9518979 -0.60577908 1.9518979 -2.1875 3.6875 C-2.64125 4.14125 -3.095 4.595 -3.5625 5.0625 C-4.2225 5.0625 -4.8825 5.0625 -5.5625 5.0625 C-4.43693182 0.07784091 -4.43693182 0.07784091 0 0 Z " fill="#454545" transform="translate(100.5625,202.9375)"/>
<path d="" fill="#FFFFFF" transform="translate(0,0)"/>
<path d="" fill="#FFFFFF" transform="translate(0,0)"/>
<path d="" fill="#FFFFFF" transform="translate(0,0)"/>
<path d="" fill="#FFFFFF" transform="translate(0,0)"/>
<path d="" fill="#FFFFFF" transform="translate(0,0)"/>
<path d="" fill="#FFFFFF" transform="translate(0,0)"/>
<path d="" fill="#FFFFFF" transform="translate(0,0)"/>
<path d="" fill="#FFFFFF" transform="translate(0,0)"/>
<path d="" fill="#FFFFFF" transform="translate(0,0)"/>
<path d="" fill="#FFFFFF" transform="translate(0,0)"/>
<path d="" fill="#FFFFFF" transform="translate(0,0)"/>
<path d="" fill="#FFFFFF" transform="translate(0,0)"/>
<path d="" fill="#FFFFFF" transform="translate(0,0)"/>
<path d="" fill="#FFFFFF" transform="translate(0,0)"/>
<path d="" fill="#FFFFFF" transform="translate(0,0)"/>
<path d="" fill="#FFFFFF" transform="translate(0,0)"/>
<path d="" fill="#FFFFFF" transform="translate(0,0)"/>
<path d="" fill="#FFFFFF" transform="translate(0,0)"/>
<path d="" fill="#FFFFFF" transform="translate(0,0)"/>
<path d="" fill="#FFFFFF" transform="translate(0,0)"/>
<path d="" fill="#FFFFFF" transform="translate(0,0)"/>
<path d="" fill="#FFFFFF" transform="translate(0,0)"/>
<path d="" fill="#FFFFFF" transform="translate(0,0)"/>
<path d="" fill="#FFFFFF" transform="translate(0,0)"/>
<path d="" fill="#FFFFFF" transform="translate(0,0)"/>
<path d="" fill="#FFFFFF" transform="translate(0,0)"/>
<path d="" fill="#FFFFFF" transform="translate(0,0)"/>
<path d="" fill="#FFFFFF" transform="translate(0,0)"/>
<path d="" fill="#FFFFFF" transform="translate(0,0)"/>
<path d="" fill="#FFFFFF" transform="translate(0,0)"/>
<path d="" fill="#FFFFFF" transform="translate(0,0)"/>
<path d="" fill="#FFFFFF" transform="translate(0,0)"/>
<path d="" fill="#FFFFFF" transform="translate(0,0)"/>
<path d="" fill="#FFFFFF" transform="translate(0,0)"/>
<path d="" fill="#FFFFFF" transform="translate(0,0)"/>
<path d="" fill="#FFFFFF" transform="translate(0,0)"/>
<path d="" fill="#FFFFFF" transform="translate(0,0)"/>
<path d="" fill="#FFFFFF" transform="translate(0,0)"/>
<path d="" fill="#FFFFFF" transform="translate(0,0)"/>
<path d="" fill="#FFFFFF" transform="translate(0,0)"/>
<path d="" fill="#FFFFFF" transform="translate(0,0)"/>
<path d="" fill="#FFFFFF" transform="translate(0,0)"/>
<path d="" fill="#FFFFFF" transform="translate(0,0)"/>
<path d="" fill="#FFFFFF" transform="translate(0,0)"/>
<path d="" fill="#FFFFFF" transform="translate(0,0)"/>
<path d="" fill="#FFFFFF" transform="translate(0,0)"/>
<path d="" fill="#FFFFFF" transform="translate(0,0)"/>
<path d="" fill="#FFFFFF" transform="translate(0,0)"/>
<path d="" fill="#FFFFFF" transform="translate(0,0)"/>
<path d="" fill="#FFFFFF" transform="translate(0,0)"/>
<path d="" fill="#FFFFFF" transform="translate(0,0)"/>
<path d="" fill="#FFFFFF" transform="translate(0,0)"/>
<path d="" fill="#FFFFFF" transform="translate(0,0)"/>
<path d="" fill="#FFFFFF" transform="translate(0,0)"/>
<path d="" fill="#FFFFFF" transform="translate(0,0)"/>
<path d="" fill="#FFFFFF" transform="translate(0,0)"/>
<path d="" fill="#FFFFFF" transform="translate(0,0)"/>
<path d="" fill="#FFFFFF" transform="translate(0,0)"/>
<path d="" fill="#FFFFFF" transform="translate(0,0)"/>
<path d="" fill="#FFFFFF" transform="translate(0,0)"/>
<path d="" fill="#FFFFFF" transform="translate(0,0)"/>
<path d="" fill="#FFFFFF" transform="translate(0,0)"/>
<path d="" fill="#FFFFFF" transform="translate(0,0)"/>
<path d="" fill="#FFFFFF" transform="translate(0,0)"/>
<path d="" fill="#FFFFFF" transform="translate(0,0)"/>
<path d="" fill="#FFFFFF" transform="translate(0,0)"/>
<path d="" fill="#FFFFFF" transform="translate(0,0)"/>
<path d="" fill="#FFFFFF" transform="translate(0,0)"/>
<path d="" fill="#FFFFFF" transform="translate(0,0)"/>
<path d="" fill="#FFFFFF" transform="translate(0,0)"/>
<path d="" fill="#FFFFFF" transform="translate(0,0)"/>
<path d="" fill="#FFFFFF" transform="translate(0,0)"/>
</svg>
